# xmcd
#
# Track frame offsets:
#	150
#	26602
#	54218
#	74307
#	108347
#	129388
#	160638
#	196575
#	228386
#	249721
#	280183
#	299886
#
# Disc length: 4347 seconds
#
# Revision: 1
# Processed by: cddbd v1.5.2PL0 Copyright (c) Steve Scherf et al.
# Submitted via: audiograbber 1.81.02
#
DISCID=a610f90c
DTITLE=Verschiedene - play like david (www.gerth.de)
DYEAR=2008
DGENRE=Instrumental Pop
TTITLE0=Michael Schlierf - Riding
TTITLE1=Lothar Kosse - Walk On Water
TTITLE2=NBA - Night Lights
TTITLE3=Andreas Gundlach - 3-6-3
TTITLE4=Michael Schlierf - Israel
TTITLE5=Lothar Kosse - Rainmaker
TTITLE6=Andreas Gundlach - Cloud Nine
TTITLE7=NBA - Another Day With You
TTITLE8=Michael Schlierf - Peace
TTITLE9=Andreas Gundlach - I'll Find Your Love
TTITLE10=NBA - The Homecoming
TTITLE11=Lothar Kosse - Fall On Me
EXTD=
EXTT0=
EXTT1=
EXTT2=
EXTT3=
EXTT4=
EXTT5=
EXTT6=
EXTT7=
EXTT8=
EXTT9=
EXTT10=
EXTT11=
PLAYORDER=
